<?xml version="1.0" encoding="UTF-8"?>
<!DOCTYPE svg PUBLIC "-//W3C//DTD SVG 1.1//EN" "http://www.w3.org/Graphics/SVG/1.1/DTD/svg11.dtd">
<!-- Creator: CorelDRAW X8 -->
<svg xmlns="http://www.w3.org/2000/svg" xml:space="preserve" width="297mm" height="210mm" version="1.1" style="shape-rendering:geometricPrecision; text-rendering:geometricPrecision; image-rendering:optimizeQuality; fill-rule:evenodd; clip-rule:evenodd"
viewBox="0 0 29700 21000"
 xmlns:xlink="http://www.w3.org/1999/xlink">
 <defs>
  <style type="text/css">
   <![CDATA[
    .fil0 {fill:#FEFEFE}
   ]]>
  </style>
 </defs>
 <g id="Layer_x0020_1">
  <metadata id="CorelCorpID_0Corel-Layer"/>
  <g id="_2278051923552">
   <g>
    <g>
     <g>
      <circle class="fil0" cx="4716" cy="2983" r="129"/>
      <path class="fil0" d="M5012 1890l-167 0 0 -129c0,-71 -58,-128 -129,-128 -71,0 -128,57 -128,128l0 129 -585 0 0 -129c0,-71 -58,-128 -129,-128 -71,0 -128,57 -128,128l0 129 -579 0 0 -129c0,-71 -57,-128 -128,-128 -71,0 -129,57 -129,128l0 129 -160 0c-284,0 -515,231 -515,514l0 2005c0,284 231,515 515,515l983 0c71,0 129,-58 129,-129 0,-71 -58,-129 -129,-129l-983 0c-142,0 -257,-115 -257,-257l0 -2005c0,-142 115,-257 257,-257l160 0 0 129c0,71 58,128 129,128 71,0 128,-57 128,-128l0 -129 579 0 0 129c0,71 57,128 128,128 71,0 129,-57 129,-128l0 -129 585 0 0 129c0,71 57,128 128,128 71,0 129,-57 129,-128l0 -129 167 0c142,0 257,115 257,257l0 733c0,71 58,128 129,128 71,0 128,-57 128,-128l0 -733c0,-283 -230,-514 -514,-514z"/>
      <path class="fil0" d="M4748 3368c-428,0 -777,349 -777,778 0,429 349,778 777,778 429,0 778,-349 778,-778 0,-429 -349,-778 -778,-778zm0 1298c-287,0 -520,-233 -520,-520 0,-287 233,-521 520,-521 288,0 521,234 521,521 0,287 -233,520 -521,520z"/>
      <path class="fil0" d="M4935 4017l-58 0 0 -135c0,-71 -58,-128 -129,-128 -71,0 -128,57 -128,128l0 264c0,71 57,128 128,128l187 0c71,0 128,-57 128,-128 0,-71 -57,-129 -128,-129z"/>
      <circle class="fil0" cx="4157" cy="2983" r="129"/>
      <circle class="fil0" cx="3598" cy="3542" r="129"/>
      <circle class="fil0" cx="3039" cy="2983" r="129"/>
      <circle class="fil0" cx="3039" cy="3542" r="129"/>
      <circle class="fil0" cx="3039" cy="4101" r="129"/>
      <circle class="fil0" cx="3598" cy="4101" r="129"/>
      <circle class="fil0" cx="3598" cy="2983" r="129"/>
     </g>
    </g>
   </g>
   <g>
   </g>
   <g>
   </g>
   <g>
   </g>
   <g>
   </g>
   <g>
   </g>
   <g>
   </g>
   <g>
   </g>
   <g>
   </g>
   <g>
   </g>
   <g>
   </g>
   <g>
   </g>
   <g>
   </g>
   <g>
   </g>
   <g>
   </g>
   <g>
   </g>
  </g>
 </g>
</svg>
